<svg width="25" height="24" viewBox="0 0 25 24" fill="none" xmlns="http://www.w3.org/2000/svg">
<path fill-rule="evenodd" clip-rule="evenodd" d="M16.0386 1.13569C16.332 0.842288 16.7761 0.76056 17.1547 0.930293L21.2365 2.76003C21.4604 2.86041 21.6396 3.03962 21.7399 3.26354L23.5694 7.34521C23.7391 7.72384 23.6573 8.16793 23.3639 8.46133L19.3762 12.449C19.0933 12.7319 18.6691 12.8189 18.2977 12.6704L14.6877 11.2264L13.7486 12.1655C13.9089 12.5317 13.8392 12.9743 13.5395 13.274L6.03912 20.7739C5.73947 21.0736 5.29699 21.1433 4.93087 20.9831L3.04988 22.8641C2.65935 23.2546 2.02618 23.2546 1.63566 22.8641C1.24514 22.4735 1.24514 21.8404 1.63567 21.4499L3.43029 19.6553C3.17193 19.2668 3.21403 18.7376 3.55659 18.3951L11.0569 10.8952C11.3994 10.5527 11.9285 10.5106 12.3169 10.7688L13.2735 9.81219L11.8295 6.20186C11.6809 5.83045 11.768 5.40624 12.0508 5.12339L16.0386 1.13569ZM16.2263 9.68779L18.4282 10.5685L21.4624 7.53438L20.5084 5.40576L16.2263 9.68779ZM19.0942 3.99148L14.8121 8.27356L13.9313 6.07136L16.9655 3.03721L19.0942 3.99148Z" fill="white"/>
</svg>
