<svg width="40" height="40" viewBox="0 0 40 40" fill="none" xmlns="http://www.w3.org/2000/svg">
<g clip-path="url(#clip0_140_1262)">
<path fill-rule="evenodd" clip-rule="evenodd" d="M20 16C17.7909 16 16 17.7909 16 20C16 22.2091 17.7909 24 20 24C22.2091 24 24 22.2091 24 20C24 17.7909 22.2091 16 20 16ZM18 20C18 18.8954 18.8954 18 20 18C21.1046 18 22 18.8954 22 20C22 21.1046 21.1046 22 20 22C18.8954 22 18 21.1046 18 20Z" fill="#000021"/>
<path fill-rule="evenodd" clip-rule="evenodd" d="M20 8C19.2044 8 18.4413 8.31607 17.8787 8.87868C17.3161 9.44129 17 10.2043 17 11V11.1675C16.9992 11.2937 16.9617 11.417 16.8919 11.5223C16.845 11.5932 16.7848 11.6539 16.7151 11.7012C16.6469 11.7155 16.5803 11.7369 16.5162 11.7651C16.3974 11.8176 16.2656 11.8332 16.1378 11.81C16.0114 11.7871 15.8947 11.7273 15.8023 11.6381L15.7475 11.5833C15.4689 11.3044 15.138 11.0831 14.7738 10.9321C14.4096 10.7811 14.0192 10.7034 13.625 10.7034C13.2308 10.7034 12.8404 10.7811 12.4762 10.9321C12.1122 11.083 11.7814 11.3041 11.5029 11.5829C11.2241 11.8614 11.003 12.1922 10.8521 12.5562C10.7011 12.9204 10.6234 13.3108 10.6234 13.705C10.6234 14.0992 10.7011 14.4896 10.8521 14.8538C11.0031 15.218 11.2244 15.5489 11.5033 15.8275L11.5581 15.8823C11.6473 15.9747 11.7071 16.0914 11.73 16.2178C11.7532 16.3456 11.7376 16.4774 11.6851 16.5962C11.6766 16.6155 11.6687 16.635 11.6615 16.6548C11.6164 16.7772 11.5356 16.8833 11.4296 16.9591C11.3259 17.0333 11.2028 17.0753 11.0756 17.08H11C10.2043 17.08 9.44129 17.3961 8.87868 17.9587C8.31607 18.5213 8 19.2844 8 20.08C8 20.8756 8.31607 21.6387 8.87868 22.2013C9.44129 22.7639 10.2043 23.08 11 23.08H11.1675C11.2937 23.0808 11.417 23.1183 11.5223 23.1881C11.628 23.258 11.7109 23.3574 11.7608 23.474L11.7651 23.4838C11.8176 23.6026 11.8332 23.7344 11.81 23.8622C11.7871 23.9886 11.7273 24.1053 11.6381 24.1977L11.5833 24.2525C11.3044 24.5311 11.0831 24.862 10.9321 25.2262C10.7811 25.5904 10.7034 25.9808 10.7034 26.375C10.7034 26.7692 10.7811 27.1596 10.9321 27.5238C11.0831 27.888 11.3044 28.2189 11.5833 28.4975C11.8617 28.7761 12.1923 28.9971 12.5562 29.1479C12.9204 29.2989 13.3108 29.3766 13.705 29.3766C14.0992 29.3766 14.4896 29.2989 14.8538 29.1479C15.2178 28.997 15.549 28.7755 15.8275 28.4967L15.8823 28.4419C15.9747 28.3527 16.0914 28.2929 16.2178 28.27C16.3456 28.2468 16.4774 28.2624 16.5962 28.3149C16.6155 28.3234 16.635 28.3313 16.6548 28.3385C16.7772 28.3836 16.8833 28.4644 16.9591 28.5704C17.0333 28.6741 17.0753 28.7972 17.08 28.9244V29C17.08 29.7957 17.3961 30.5587 17.9587 31.1213C18.5213 31.6839 19.2843 32 20.08 32C20.8757 32 21.6387 31.6839 22.2013 31.1213C22.7639 30.5587 23.08 29.7957 23.08 29V28.8325C23.0808 28.7063 23.1183 28.583 23.1881 28.4777C23.258 28.372 23.3574 28.2891 23.474 28.2392L23.4838 28.2349C23.6026 28.1824 23.7344 28.1668 23.8622 28.19C23.9886 28.2129 24.1053 28.2727 24.1977 28.3619L24.2529 28.4171C24.5314 28.6959 24.8622 28.917 25.2262 29.0679C25.5904 29.2189 25.9808 29.2966 26.375 29.2966C26.7692 29.2966 27.1596 29.2189 27.5238 29.0679C27.8878 28.917 28.2186 28.6959 28.4971 28.4171C28.7759 28.1386 28.997 27.8078 29.1479 27.4438C29.2989 27.0796 29.3766 26.6892 29.3766 26.295C29.3766 25.9008 29.2989 25.5104 29.1479 25.1462C28.997 24.7822 28.7755 24.451 28.4967 24.1725L28.4419 24.1177C28.3527 24.0253 28.2929 23.9086 28.27 23.7822C28.2468 23.6544 28.2625 23.5226 28.3149 23.4038L28.3191 23.3939C28.3691 23.2774 28.452 23.178 28.5577 23.1081C28.663 23.0383 28.7863 23.0008 28.9125 23H29C29.7957 23 30.5587 22.6839 31.1213 22.1213C31.6839 21.5587 32 20.7957 32 20C32 19.2043 31.6839 18.4413 31.1213 17.8787C30.5587 17.3161 29.7957 17 29 17H28.8325C28.7063 16.9992 28.583 16.9617 28.4777 16.8919C28.4068 16.845 28.3461 16.7848 28.2988 16.7151C28.2845 16.6469 28.2631 16.5803 28.2349 16.5162C28.1824 16.3974 28.1668 16.2656 28.19 16.1378C28.2129 16.0114 28.2727 15.8947 28.3619 15.8023L28.4171 15.7471C28.6959 15.4686 28.917 15.1378 29.0679 14.7738C29.2189 14.4096 29.2966 14.0192 29.2966 13.625C29.2966 13.2308 29.2189 12.8404 29.0679 12.4762C28.9171 12.1123 28.6961 11.7817 28.4175 11.5033C28.1389 11.2244 27.808 11.0031 27.4438 10.8521C27.0796 10.7011 26.6892 10.6234 26.295 10.6234C25.9008 10.6234 25.5104 10.7011 25.1462 10.8521C24.782 11.0031 24.4511 11.2244 24.1725 11.5033L24.1177 11.5581C24.0253 11.6473 23.9086 11.7071 23.7822 11.73C23.6544 11.7532 23.5226 11.7375 23.4038 11.6851L23.3939 11.6809C23.2774 11.6309 23.178 11.548 23.1081 11.4423C23.0383 11.337 23.0008 11.2137 23 11.0875V11C23 10.2043 22.6839 9.44129 22.1213 8.87868C21.5587 8.31607 20.7956 8 20 8ZM19.2929 10.2929C19.4804 10.1054 19.7348 10 20 10C20.2652 10 20.5196 10.1054 20.7071 10.2929C20.8946 10.4804 21 10.7348 21 11V11.09L21 11.094C21.0021 11.6108 21.1552 12.1157 21.4406 12.5466C21.7249 12.976 22.1282 13.3132 22.6011 13.517C23.0843 13.7291 23.6198 13.7921 24.139 13.698C24.66 13.6035 25.1408 13.3552 25.5193 12.9849L25.5875 12.9167C25.6804 12.8237 25.7907 12.75 25.9121 12.6997C26.0335 12.6493 26.1636 12.6234 26.295 12.6234C26.4264 12.6234 26.5565 12.6493 26.6779 12.6997C26.7993 12.75 26.9096 12.8237 27.0025 12.9167L27.0033 12.9175C27.0963 13.0104 27.17 13.1207 27.2203 13.2421C27.2707 13.3635 27.2966 13.4936 27.2966 13.625C27.2966 13.7564 27.2707 13.8865 27.2203 14.0079C27.17 14.1293 27.0959 14.24 27.0029 14.3329L26.9428 14.3929L26.9351 14.4007C26.5649 14.7793 26.3165 15.26 26.222 15.781C26.14 16.2333 26.1773 16.698 26.3284 17.1296C26.3403 17.2204 26.3646 17.3094 26.4009 17.3939C26.6045 17.869 26.9425 18.2741 27.3734 18.5594C27.8043 18.8448 28.3092 18.9979 28.826 19L28.83 19H29C29.2652 19 29.5196 19.1054 29.7071 19.2929C29.8946 19.4804 30 19.7348 30 20C30 20.2652 29.8946 20.5196 29.7071 20.7071C29.5196 20.8946 29.2652 21 29 21L28.91 21L28.906 21C28.3892 21.0021 27.8843 21.1552 27.4534 21.4406C27.024 21.725 26.6867 22.1283 26.4829 22.6012C26.2709 23.0843 26.2079 23.6198 26.302 24.139C26.3965 24.66 26.6448 25.1408 27.0151 25.5193L27.0833 25.5875C27.1763 25.6804 27.25 25.7907 27.3003 25.9121C27.3507 26.0335 27.3766 26.1636 27.3766 26.295C27.3766 26.4264 27.3507 26.5565 27.3003 26.6779C27.25 26.7993 27.1763 26.9096 27.0833 27.0025L27.0825 27.0033C26.9896 27.0963 26.8793 27.17 26.7579 27.2203C26.6365 27.2707 26.5064 27.2966 26.375 27.2966C26.2436 27.2966 26.1135 27.2707 25.9921 27.2203C25.8707 27.17 25.76 27.0959 25.6671 27.0029L25.6071 26.9429L25.5993 26.9351C25.2207 26.5649 24.74 26.3165 24.219 26.222C23.6998 26.1279 23.1643 26.1909 22.6812 26.4029C22.2083 26.6067 21.805 26.944 21.5206 27.3734C21.2352 27.8043 21.0821 28.3092 21.08 28.826L21.08 28.83V29C21.08 29.2652 20.9746 29.5196 20.7871 29.7071C20.5996 29.8946 20.3452 30 20.08 30C19.8148 30 19.5604 29.8946 19.3729 29.7071C19.1854 29.5196 19.08 29.2652 19.08 29V28.91L19.0797 28.8866C19.0673 28.355 18.8952 27.8395 18.5859 27.407C18.2827 26.983 17.8613 26.6581 17.3748 26.4725C16.898 26.2689 16.3716 26.2095 15.861 26.302C15.34 26.3965 14.8592 26.6448 14.4807 27.0151L14.4125 27.0833C14.3196 27.1763 14.2093 27.25 14.0879 27.3003C13.9665 27.3507 13.8364 27.3766 13.705 27.3766C13.5736 27.3766 13.4435 27.3507 13.3221 27.3003C13.2007 27.25 13.0904 27.1763 12.9975 27.0833L12.9967 27.0825C12.9037 26.9896 12.83 26.8793 12.7797 26.7579C12.7293 26.6365 12.7034 26.5064 12.7034 26.375C12.7034 26.2436 12.7293 26.1135 12.7797 25.9921C12.83 25.8707 12.9041 25.76 12.9971 25.6671L13.0571 25.6072L13.0649 25.5993C13.4351 25.2207 13.6835 24.74 13.778 24.219C13.8721 23.6998 13.8091 23.1643 13.597 22.6811C13.3932 22.2082 13.056 21.8049 12.6266 21.5206C12.1957 21.2352 11.6908 21.0821 11.174 21.08H11C10.7348 21.08 10.4804 20.9746 10.2929 20.7871C10.1054 20.5996 10 20.3452 10 20.08C10 19.8148 10.1054 19.5604 10.2929 19.3729C10.4804 19.1854 10.7348 19.08 11 19.08H11.09L11.1134 19.0797C11.645 19.0673 12.1605 18.8952 12.593 18.5859C13.017 18.2827 13.3419 17.8613 13.5275 17.3748C13.7311 16.898 13.7905 16.3716 13.698 15.861C13.6035 15.34 13.3552 14.8592 12.9849 14.4807L12.9167 14.4125C12.8237 14.3196 12.75 14.2093 12.6997 14.0879C12.6493 13.9665 12.6234 13.8364 12.6234 13.705C12.6234 13.5736 12.6493 13.4435 12.6997 13.3221C12.75 13.2007 12.8237 13.0904 12.9167 12.9975L12.9175 12.9967C13.0104 12.9037 13.1207 12.83 13.2421 12.7797C13.3635 12.7293 13.4936 12.7034 13.625 12.7034C13.7564 12.7034 13.8865 12.7293 14.0079 12.7797C14.1293 12.83 14.24 12.9041 14.3329 12.9971L14.3928 13.0571L14.4007 13.0649C14.7793 13.4351 15.26 13.6835 15.781 13.778C16.2333 13.86 16.698 13.8227 17.1296 13.6716C17.2204 13.6597 17.3094 13.6354 17.3939 13.5991C17.869 13.3956 18.2741 13.0575 18.5594 12.6266C18.8448 12.1957 18.9979 11.6908 19 11.174V11C19 10.7348 19.1054 10.4804 19.2929 10.2929Z" fill="#000021"/>
</g>
<defs>
<clipPath id="clip0_140_1262">
<rect width="24" height="24" fill="white" transform="translate(8 8)"/>
</clipPath>
</defs>
</svg>
