<svg width="24" height="24" viewBox="0 0 24 24" fill="none" xmlns="http://www.w3.org/2000/svg">
<path fill-rule="evenodd" clip-rule="evenodd" d="M17.3994 1C17.9517 1 18.3994 1.44771 18.3994 2V19.3582L21.5594 16.8268C21.9904 16.4815 22.6197 16.551 22.965 16.982C23.3103 17.413 23.2408 18.0424 22.8098 18.3877L18.0246 22.221C17.6592 22.5137 17.1396 22.5137 16.7742 22.221L11.9891 18.3877C11.558 18.0424 11.4885 17.413 11.8338 16.982C12.1791 16.551 12.8085 16.4815 13.2395 16.8268L16.3994 19.3581L16.3994 2C16.3994 1.44771 16.8471 1 17.3994 1ZM9.51578 9.96019C9.43416 9.96019 9.36073 9.91059 9.33025 9.83487L8.64223 8.12565C8.61175 8.04994 8.53832 8.00034 8.4567 8.00034H4.87594C4.79432 8.00034 4.72089 8.04994 4.69041 8.12565L4.00239 9.83487C3.97191 9.91059 3.89848 9.96019 3.81686 9.96019H2.30178C2.15852 9.96019 2.06172 9.814 2.11764 9.68211L5.58503 1.50474C5.61637 1.43082 5.68888 1.38281 5.76916 1.38281H7.64333C7.7238 1.38281 7.79644 1.43105 7.82766 1.50522L11.2696 9.6826C11.325 9.81442 11.2282 9.96019 11.0852 9.96019H9.51578ZM6.85175 3.69258C6.78436 3.52584 6.54828 3.52584 6.48089 3.69258L5.46705 6.20106C5.41392 6.33253 5.51068 6.47601 5.65248 6.47601H7.68016C7.82196 6.47601 7.91872 6.33253 7.86559 6.20106L6.85175 3.69258ZM9.88866 21.8581C9.88866 21.9685 9.79911 22.0581 9.68866 22.0581H2.62747C2.51701 22.0581 2.42747 21.9685 2.42747 21.8581V20.5149C2.42747 20.4648 2.44628 20.4165 2.48018 20.3796L7.05349 15.4008C7.17128 15.2726 7.08032 15.0655 6.9062 15.0655H2.80129C2.69084 15.0655 2.6013 14.976 2.6013 14.8655V13.6807C2.6013 13.5703 2.69084 13.4807 2.8013 13.4807H9.6218C9.73226 13.4807 9.8218 13.5703 9.8218 13.6807V14.963C9.8218 15.0134 9.80281 15.0619 9.76861 15.0988L5.11825 20.1254C4.99977 20.2534 5.0906 20.4612 5.26506 20.4612H9.68866C9.79911 20.4612 9.88866 20.5507 9.88866 20.6612V21.8581Z" fill="#0000DB"/>
</svg>
