<svg width="25" height="24" viewBox="0 0 25 24" fill="none" xmlns="http://www.w3.org/2000/svg">
<path fill-rule="evenodd" clip-rule="evenodd" d="M12.5 3C13.0523 3 13.5 3.44772 13.5 4V20C13.5 20.5523 13.0523 21 12.5 21C11.9477 21 11.5 20.5523 11.5 20V4C11.5 3.44772 11.9477 3 12.5 3ZM18.5 9C19.0523 9 19.5 9.44772 19.5 10V20C19.5 20.5523 19.0523 21 18.5 21C17.9477 21 17.5 20.5523 17.5 20V10C17.5 9.44772 17.9477 9 18.5 9ZM6.5 13C7.05228 13 7.5 13.4477 7.5 14V20C7.5 20.5523 7.05228 21 6.5 21C5.94772 21 5.5 20.5523 5.5 20V14C5.5 13.4477 5.94772 13 6.5 13Z" fill="#000021"/>
</svg>
