<svg width="25" height="24" viewBox="0 0 25 24" fill="none" xmlns="http://www.w3.org/2000/svg">
<path fill-rule="evenodd" clip-rule="evenodd" d="M12.834 3C13.3863 3 13.834 3.44772 13.834 4V20C13.834 20.5523 13.3863 21 12.834 21C12.2817 21 11.834 20.5523 11.834 20V4C11.834 3.44772 12.2817 3 12.834 3ZM18.834 9C19.3863 9 19.834 9.44772 19.834 10V20C19.834 20.5523 19.3863 21 18.834 21C18.2817 21 17.834 20.5523 17.834 20V10C17.834 9.44772 18.2817 9 18.834 9ZM6.83398 13C7.38627 13 7.83398 13.4477 7.83398 14V20C7.83398 20.5523 7.38627 21 6.83398 21C6.2817 21 5.83398 20.5523 5.83398 20V14C5.83398 13.4477 6.2817 13 6.83398 13Z" fill="white"/>
</svg>
