<svg width="88" height="53" viewBox="0 0 88 53" fill="none" xmlns="http://www.w3.org/2000/svg">
<path d="M20 26.5C20 27.0523 19.5523 27.5 19 27.5H7.41421L12.7071 32.7929C13.0976 33.1834 13.0976 33.8166 12.7071 34.2071C12.3166 34.5976 11.6834 34.5976 11.2929 34.2071L4.29289 27.2071C3.90237 26.8166 3.90237 26.1834 4.29289 25.7929L11.2929 18.7929C11.6834 18.4024 12.3166 18.4024 12.7071 18.7929C13.0976 19.1834 13.0976 19.8166 12.7071 20.2071L7.41421 25.5H19C19.5523 25.5 20 25.9477 20 26.5Z" fill="#0000DB"/>
<path d="M34.0142 17.984H40.1342C43.4462 17.984 45.3182 19.928 45.3182 22.568C45.3182 24.32 44.2622 25.736 42.8462 26.216C44.5022 26.624 45.8462 28.136 45.8462 30.248C45.8462 33.008 43.7822 35 40.5902 35H34.0142V17.984ZM37.2782 25.016H39.6302C41.1422 25.016 42.0542 24.176 42.0542 22.88C42.0542 21.584 41.2142 20.768 39.6062 20.768H37.2782V25.016ZM37.2782 32.24H39.9662C41.5742 32.24 42.5342 31.4 42.5342 30.032C42.5342 28.688 41.6702 27.752 40.0142 27.752H37.2782V32.24ZM48.321 31.784C48.321 29.672 49.881 28.496 51.849 28.208L54.753 27.776C55.425 27.68 55.641 27.344 55.641 26.936C55.641 26.096 54.993 25.4 53.649 25.4C52.257 25.4 51.489 26.288 51.393 27.32L48.561 26.72C48.753 24.872 50.457 22.832 53.625 22.832C57.369 22.832 58.761 24.944 58.761 27.32V33.128C58.761 33.752 58.833 34.592 58.905 35H55.977C55.905 34.688 55.857 34.04 55.857 33.584C55.257 34.52 54.129 35.336 52.377 35.336C49.857 35.336 48.321 33.632 48.321 31.784ZM53.049 32.96C54.393 32.96 55.641 32.312 55.641 30.224V29.696L52.977 30.104C52.161 30.224 51.513 30.68 51.513 31.592C51.513 32.288 52.017 32.96 53.049 32.96ZM67.8831 25.784C66.2511 25.784 64.8831 26.96 64.8831 29.096C64.8831 31.232 66.2751 32.432 67.9071 32.432C69.5391 32.432 70.3551 31.352 70.6191 30.44L73.4271 31.376C72.8991 33.344 71.0511 35.36 67.9071 35.36C64.4271 35.36 61.6911 32.72 61.6911 29.096C61.6911 25.448 64.3791 22.832 67.8111 22.832C71.0271 22.832 72.8511 24.824 73.3551 26.816L70.4991 27.776C70.2111 26.792 69.4671 25.784 67.8831 25.784ZM87.675 23.192L82.947 28.16L87.771 35H83.859L80.739 30.488L79.419 31.88V35H76.227V17.624H79.419V27.584L83.499 23.192H87.675Z" fill="#0000DB"/>
</svg>
