<svg width="25" height="24" viewBox="0 0 25 24" fill="none" xmlns="http://www.w3.org/2000/svg">
<path fill-rule="evenodd" clip-rule="evenodd" d="M16.0396 1.13569C16.333 0.842288 16.7771 0.76056 17.1557 0.930293L21.2374 2.76003C21.4614 2.86041 21.6406 3.03962 21.7409 3.26354L23.5703 7.34521C23.74 7.72384 23.6583 8.16793 23.3649 8.46133L19.3772 12.449C19.0943 12.7319 18.6701 12.8189 18.2987 12.6704L14.6886 11.2264L13.7496 12.1655C13.9099 12.5317 13.8402 12.9743 13.5404 13.274L6.04009 20.7739C5.74045 21.0736 5.29797 21.1433 4.93184 20.9831L3.05085 22.8641C2.66033 23.2546 2.02716 23.2546 1.63664 22.8641C1.24612 22.4735 1.24612 21.8404 1.63665 21.4499L3.43127 19.6553C3.17291 19.2668 3.21501 18.7376 3.55756 18.3951L11.0579 10.8952C11.4004 10.5527 11.9295 10.5106 12.3178 10.7688L13.2744 9.81219L11.8304 6.20186C11.6819 5.83045 11.769 5.40624 12.0518 5.12339L16.0396 1.13569ZM16.2273 9.68779L18.4292 10.5685L21.4634 7.53438L20.5094 5.40576L16.2273 9.68779ZM19.0952 3.99148L14.8131 8.27356L13.9323 6.07136L16.9665 3.03721L19.0952 3.99148Z" fill="#000021"/>
</svg>
