<svg width="41" height="40" viewBox="0 0 41 40" fill="none" xmlns="http://www.w3.org/2000/svg">
<path fill-rule="evenodd" clip-rule="evenodd" d="M25.6494 9C26.2017 9 26.6494 9.44771 26.6494 10V27.3582L29.8094 24.8268C30.2404 24.4815 30.8697 24.551 31.215 24.982C31.5603 25.413 31.4908 26.0424 31.0598 26.3877L26.2746 30.221C25.9092 30.5137 25.3896 30.5137 25.0242 30.221L20.2391 26.3877C19.808 26.0424 19.7385 25.413 20.0838 24.982C20.4291 24.551 21.0585 24.4815 21.4895 24.8268L24.6494 27.3581L24.6494 10C24.6494 9.44771 25.0971 9 25.6494 9ZM17.7658 17.9602C17.6842 17.9602 17.6107 17.9106 17.5803 17.8349L16.8922 16.1257C16.8618 16.0499 16.7883 16.0003 16.7067 16.0003H13.1259C13.0443 16.0003 12.9709 16.0499 12.9404 16.1257L12.2524 17.8349C12.2219 17.9106 12.1485 17.9602 12.0669 17.9602H10.5518C10.4085 17.9602 10.3117 17.814 10.3676 17.6821L13.835 9.50474C13.8664 9.43082 13.9389 9.38281 14.0192 9.38281H15.8933C15.9738 9.38281 16.0464 9.43105 16.0777 9.50522L19.5196 17.6826C19.575 17.8144 19.4782 17.9602 19.3352 17.9602H17.7658ZM15.1017 11.6926C15.0344 11.5258 14.7983 11.5258 14.7309 11.6926L13.7171 14.2011C13.6639 14.3325 13.7607 14.476 13.9025 14.476H15.9302C16.072 14.476 16.1687 14.3325 16.1156 14.2011L15.1017 11.6926ZM18.1387 29.8581C18.1387 29.9685 18.0491 30.0581 17.9387 30.0581H10.8775C10.767 30.0581 10.6775 29.9685 10.6775 29.8581V28.5149C10.6775 28.4648 10.6963 28.4165 10.7302 28.3796L15.3035 23.4008C15.4213 23.2726 15.3303 23.0655 15.1562 23.0655H11.0513C10.9408 23.0655 10.8513 22.976 10.8513 22.8655V21.6807C10.8513 21.5703 10.9408 21.4807 11.0513 21.4807H17.8718C17.9823 21.4807 18.0718 21.5703 18.0718 21.6807V22.963C18.0718 23.0134 18.0528 23.0619 18.0186 23.0988L13.3683 28.1254C13.2498 28.2534 13.3406 28.4612 13.5151 28.4612H17.9387C18.0491 28.4612 18.1387 28.5507 18.1387 28.6612V29.8581Z" fill="#5F5F5F"/>
</svg>
