<svg width="24" height="24" viewBox="0 0 24 24" fill="none" xmlns="http://www.w3.org/2000/svg">
<path fill-rule="evenodd" clip-rule="evenodd" d="M18.3984 2C18.3984 1.44772 17.9507 1 17.3984 1C16.8462 1 16.3984 1.44772 16.3984 2L16.3984 19.3581L13.2385 16.8268C12.8075 16.4815 12.1782 16.551 11.8329 16.982C11.4876 17.413 11.5571 18.0424 11.9881 18.3877L16.7732 22.221C17.1387 22.5137 17.6583 22.5137 18.0237 22.221L22.8088 18.3877C23.2398 18.0424 23.3093 17.413 22.9641 16.982C22.6188 16.551 21.9894 16.4815 21.5584 16.8268L18.3984 19.3582L18.3984 2Z" fill="#000021"/>
<path d="M5.17938 3.24415C5.17938 3.07846 5.04506 2.94415 4.87938 2.94415H4.15938C3.99369 2.94415 3.85938 2.80983 3.85938 2.64415V1.25215C3.85938 1.08646 3.99369 0.952148 4.15938 0.952148H7.23138C7.39706 0.952148 7.53138 1.08646 7.53138 1.25215V9.70015C7.53138 9.86583 7.39706 10.0001 7.23138 10.0001H5.47938C5.31369 10.0001 5.17938 9.86583 5.17938 9.70015V3.24415Z" fill="black"/>
<path d="M4.35084 22.0002C4.0935 22.0002 3.9556 21.6975 4.1245 21.5033L6.23229 19.0803C6.24321 19.0678 6.2343 19.0482 6.21766 19.0482C6.21411 19.0482 6.2106 19.0492 6.20757 19.051C5.98568 19.1854 5.80323 19.2684 5.66023 19.3002C5.51623 19.3242 5.38823 19.3362 5.27623 19.3362C4.83623 19.3362 4.42823 19.2522 4.05223 19.0842C3.68423 18.9162 3.36423 18.6882 3.09223 18.4002C2.82823 18.1042 2.62023 17.7602 2.46823 17.3682C2.31623 16.9762 2.24023 16.5562 2.24023 16.1082C2.24023 15.6282 2.32823 15.1842 2.50423 14.7762C2.68023 14.3602 2.93223 14.0002 3.26023 13.6962C3.59623 13.3842 4.00023 13.1402 4.47223 12.9642C4.94423 12.7882 5.47623 12.7002 6.06823 12.7002C6.66823 12.7002 7.20423 12.7882 7.67623 12.9642C8.14823 13.1402 8.54823 13.3802 8.87624 13.6842C9.21223 13.9882 9.46823 14.3442 9.64423 14.7522C9.82023 15.1522 9.90823 15.5802 9.90823 16.0362C9.90823 16.5482 9.79223 17.1042 9.56024 17.7042C9.33624 18.2962 8.98824 18.8802 8.51624 19.4562L6.50623 21.8912C6.44924 21.9602 6.36439 22.0002 6.27487 22.0002H4.35084ZM7.58023 16.0602C7.58023 15.8522 7.54023 15.6602 7.46023 15.4842C7.38023 15.3002 7.27223 15.1402 7.13624 15.0042C7.00024 14.8682 6.84023 14.7602 6.65623 14.6802C6.48024 14.6002 6.28823 14.5602 6.08023 14.5602C5.87223 14.5602 5.67623 14.6002 5.49223 14.6802C5.31623 14.7602 5.16023 14.8682 5.02423 15.0042C4.88823 15.1402 4.78023 15.3002 4.70023 15.4842C4.62023 15.6602 4.58023 15.8522 4.58023 16.0602C4.58023 16.2682 4.62023 16.4642 4.70023 16.6482C4.78023 16.8242 4.88823 16.9802 5.02423 17.1162C5.16023 17.2522 5.31623 17.3602 5.49223 17.4402C5.67623 17.5202 5.87223 17.5602 6.08023 17.5602C6.28823 17.5602 6.48024 17.5202 6.65623 17.4402C6.84023 17.3602 7.00024 17.2522 7.13624 17.1162C7.27223 16.9802 7.38023 16.8242 7.46023 16.6482C7.54023 16.4642 7.58023 16.2682 7.58023 16.0602Z" fill="black"/>
</svg>
