<svg width="24" height="24" viewBox="0 0 24 24" fill="none" xmlns="http://www.w3.org/2000/svg">
<path d="M15.1099 9.71652C13.7919 9.4183 12.4198 9.45882 11.1216 9.83432C9.82342 10.2098 8.64153 10.908 7.6862 11.8639C7.67881 11.8712 7.67131 11.8785 7.66369 11.8857L5.25927 14.145L8.83127 13.6219C9.37773 13.5418 9.88559 13.9199 9.96562 14.4664C10.0457 15.0129 9.66754 15.5207 9.12109 15.6008L3.18442 16.4702C2.63796 16.5502 2.1301 16.1721 2.05007 15.6257L1.18061 9.689C1.10058 9.14255 1.47869 8.63468 2.02514 8.55465C2.5716 8.47462 3.07947 8.85273 3.1595 9.39919L3.67117 12.8929L6.28301 10.4386C7.47517 9.24969 8.94831 8.38095 10.5659 7.91307C12.1886 7.4437 13.9037 7.39305 15.5513 7.76583C17.1989 8.13862 18.7252 8.9227 19.9878 10.0449C21.2504 11.1671 22.2081 12.5909 22.7716 14.1833C22.9559 14.704 22.6832 15.2754 22.1625 15.4596C21.6419 15.6439 21.0704 15.3712 20.8862 14.8505C20.4354 13.5765 19.6692 12.4375 18.6591 11.5398C17.649 10.642 16.428 10.0148 15.1099 9.71652Z" fill="#0000DB"/>
</svg>
