<svg width="93" height="54" viewBox="0 0 93 54" fill="none" xmlns="http://www.w3.org/2000/svg">
<path d="M15.1099 24.9132C13.7919 24.615 12.4198 24.6555 11.1216 25.031C9.82342 25.4065 8.64153 26.1047 7.6862 27.0605C7.67881 27.0679 7.67131 27.0752 7.66369 27.0823L5.25927 29.3417L8.83127 28.8185C9.37773 28.7385 9.88559 29.1166 9.96562 29.6631C10.0457 30.2095 9.66754 30.7174 9.12109 30.7974L3.18442 31.6669C2.63796 31.7469 2.1301 31.3688 2.05007 30.8223L1.18061 24.8857C1.10058 24.3392 1.47869 23.8313 2.02514 23.7513C2.5716 23.6713 3.07947 24.0494 3.1595 24.5958L3.67117 28.0895L6.28301 25.6353C7.47517 24.4463 8.94831 23.5776 10.5659 23.1097C12.1886 22.6404 13.9037 22.5897 15.5513 22.9625C17.1989 23.3353 18.7252 24.1194 19.9878 25.2416C21.2504 26.3638 22.2081 27.7875 22.7716 29.38C22.9559 29.9006 22.6832 30.4721 22.1625 30.6563C21.6419 30.8405 21.0704 30.5678 20.8862 30.0472C20.4354 28.7732 19.6692 27.6342 18.6591 26.7364C17.649 25.8387 16.428 25.2114 15.1099 24.9132Z" fill="#0000DB"/>
<path d="M40.4373 36.0808C36.8133 36.0808 33.9093 33.8488 33.9093 29.6728V18.6808H37.2213V29.4328C37.2213 31.6648 38.4693 32.8408 40.4373 32.8408C42.4533 32.8408 43.6773 31.6648 43.6773 29.4328V18.6808H46.9893V29.6728C46.9893 33.8488 44.0853 36.0808 40.4373 36.0808ZM53.9824 28.9048V35.6968H50.7904V23.8888H53.8864V25.3528C54.6064 24.1288 56.0224 23.5768 57.2944 23.5768C60.2224 23.5768 61.5664 25.6648 61.5664 28.2568V35.6968H58.3744V28.8088C58.3744 27.4888 57.7264 26.4568 56.1904 26.4568C54.7984 26.4568 53.9824 27.5368 53.9824 28.9048ZM76.6163 18.3208V33.5608C76.6163 34.3528 76.6643 35.2168 76.7123 35.6968H73.6643C73.6163 35.4568 73.5443 34.8808 73.5443 34.3288C73.0163 35.2648 71.8163 35.9848 70.2323 35.9848C66.8723 35.9848 64.4723 33.3448 64.4723 29.7688C64.4723 26.3128 66.8003 23.6008 70.1363 23.6008C72.1763 23.6008 73.1363 24.4408 73.4723 25.0648V18.3208H76.6163ZM67.6883 29.7688C67.6883 31.8808 68.9363 33.1288 70.6163 33.1288C72.2483 33.1288 73.5203 31.8808 73.5203 29.7448C73.5203 27.6328 72.2483 26.4568 70.6163 26.4568C68.9843 26.4568 67.6883 27.6568 67.6883 29.7688ZM85.8396 33.1528C87.3996 33.1528 88.8396 32.0248 88.8396 29.7928C88.8396 27.5608 87.3996 26.4328 85.8396 26.4328C84.2796 26.4328 82.8396 27.5608 82.8396 29.7928C82.8396 32.0008 84.2796 33.1528 85.8396 33.1528ZM85.8396 23.5288C89.3676 23.5288 92.0316 26.1448 92.0316 29.7928C92.0316 33.4168 89.3676 36.0568 85.8396 36.0568C82.3116 36.0568 79.6476 33.4168 79.6476 29.7928C79.6476 26.1448 82.3116 23.5288 85.8396 23.5288Z" fill="#0000DB"/>
</svg>